<?xml version="1.0" encoding="UTF-8" standalone="no"?>
<!DOCTYPE svg PUBLIC "-//W3C//DTD SVG 1.1//EN"
 "http://www.w3.org/Graphics/SVG/1.1/DTD/svg11.dtd">
<!-- Generated by graphviz version 15.1.0 (20260618.0150)
 -->
<!-- Title: G Pages: 1 -->
<svg width="634pt" height="419pt"
 viewBox="0.00 0.00 634.00 419.00" xmlns="http://www.w3.org/2000/svg" xmlns:xlink="http://www.w3.org/1999/xlink">
<g id="graph0" class="graph" transform="scale(1 1) rotate(0) translate(21.6 397.33)">
<title>G</title>
<polygon fill="#111111" stroke="none" points="-21.6,21.6 -21.6,-397.33 612.1,-397.33 612.1,21.6 -21.6,21.6"/>
<!-- build&#45;categories.js -->
<g id="node1" class="node">
<title>build&#45;categories.js</title>
<path fill="none" stroke="#c6c5fe" d="M286.58,-333.73C286.58,-333.73 177.67,-333.73 177.67,-333.73 173.71,-333.73 169.75,-329.77 169.75,-325.82 169.75,-325.82 169.75,-317.9 169.75,-317.9 169.75,-313.94 173.71,-309.98 177.67,-309.98 177.67,-309.98 286.58,-309.98 286.58,-309.98 290.54,-309.98 294.5,-313.94 294.5,-317.9 294.5,-317.9 294.5,-325.82 294.5,-325.82 294.5,-329.77 290.54,-333.73 286.58,-333.73"/>
<text xml:space="preserve" text-anchor="middle" x="232.12" y="-316.43" font-family="Arial" font-size="14.00" fill="#c6c5fe">build&#45;categories.js</text>
</g>
<!-- config.js -->
<g id="node2" class="node">
<title>config.js</title>
<path fill="none" stroke="#cfffac" d="M582.58,-213.73C582.58,-213.73 532.92,-213.73 532.92,-213.73 528.96,-213.73 525,-209.77 525,-205.82 525,-205.82 525,-197.9 525,-197.9 525,-193.94 528.96,-189.98 532.92,-189.98 532.92,-189.98 582.58,-189.98 582.58,-189.98 586.54,-189.98 590.5,-193.94 590.5,-197.9 590.5,-197.9 590.5,-205.82 590.5,-205.82 590.5,-209.77 586.54,-213.73 582.58,-213.73"/>
<text xml:space="preserve" text-anchor="middle" x="557.75" y="-196.43" font-family="Arial" font-size="14.00" fill="#cfffac">config.js</text>
</g>
<!-- build&#45;categories.js&#45;&gt;config.js -->
<g id="edge1" class="edge">
<title>build&#45;categories.js&#45;&gt;config.js</title>
<path fill="none" stroke="#757575" d="M294.94,-332.41C349.72,-338.52 429.96,-339.27 489,-304.86 519.65,-286.99 539.01,-249.08 548.85,-224.58"/>
<polygon fill="#757575" stroke="#757575" points="552.03,-226.08 552.29,-215.49 545.48,-223.61 552.03,-226.08"/>
</g>
<!-- utils/seo.js -->
<g id="node3" class="node">
<title>utils/seo.js</title>
<path fill="none" stroke="#c6c5fe" d="M441.33,-295.73C441.33,-295.73 378.17,-295.73 378.17,-295.73 374.21,-295.73 370.25,-291.77 370.25,-287.82 370.25,-287.82 370.25,-279.9 370.25,-279.9 370.25,-275.94 374.21,-271.98 378.17,-271.98 378.17,-271.98 441.33,-271.98 441.33,-271.98 445.29,-271.98 449.25,-275.94 449.25,-279.9 449.25,-279.9 449.25,-287.82 449.25,-287.82 449.25,-291.77 445.29,-295.73 441.33,-295.73"/>
<text xml:space="preserve" text-anchor="middle" x="409.75" y="-278.43" font-family="Arial" font-size="14.00" fill="#c6c5fe">utils/seo.js</text>
</g>
<!-- build&#45;categories.js&#45;&gt;utils/seo.js -->
<g id="edge2" class="edge">
<title>build&#45;categories.js&#45;&gt;utils/seo.js</title>
<path fill="none" stroke="#757575" d="M290.15,-309.52C312.22,-304.74 337.27,-299.32 358.64,-294.7"/>
<polygon fill="#757575" stroke="#757575" points="359.25,-298.15 368.28,-292.61 357.77,-291.31 359.25,-298.15"/>
</g>
<!-- utils/template.js -->
<g id="node4" class="node">
<title>utils/template.js</title>
<path fill="none" stroke="#c6c5fe" d="M456.71,-375.73C456.71,-375.73 362.79,-375.73 362.79,-375.73 358.83,-375.73 354.88,-371.77 354.88,-367.82 354.88,-367.82 354.88,-359.9 354.88,-359.9 354.88,-355.94 358.83,-351.98 362.79,-351.98 362.79,-351.98 456.71,-351.98 456.71,-351.98 460.67,-351.98 464.62,-355.94 464.62,-359.9 464.62,-359.9 464.62,-367.82 464.62,-367.82 464.62,-371.77 460.67,-375.73 456.71,-375.73"/>
<text xml:space="preserve" text-anchor="middle" x="409.75" y="-358.43" font-family="Arial" font-size="14.00" fill="#c6c5fe">utils/template.js</text>
</g>
<!-- build&#45;categories.js&#45;&gt;utils/template.js -->
<g id="edge3" class="edge">
<title>build&#45;categories.js&#45;&gt;utils/template.js</title>
<path fill="none" stroke="#757575" d="M284.87,-334.23C304.08,-338.83 326.07,-344.09 346.15,-348.89"/>
<polygon fill="#757575" stroke="#757575" points="345.06,-352.23 355.6,-351.15 346.69,-345.42 345.06,-352.23"/>
</g>
<!-- utils/seo.js&#45;&gt;config.js -->
<g id="edge20" class="edge">
<title>utils/seo.js&#45;&gt;config.js</title>
<path fill="none" stroke="#757575" d="M449.54,-277.25C462.58,-274.06 476.89,-269.44 489,-262.86 508.17,-252.45 526.33,-235.57 539.02,-222.2"/>
<polygon fill="#757575" stroke="#757575" points="541.31,-224.88 545.5,-215.14 536.16,-220.14 541.31,-224.88"/>
</g>
<!-- utils/template.js&#45;&gt;config.js -->
<g id="edge21" class="edge">
<title>utils/template.js&#45;&gt;config.js</title>
<path fill="none" stroke="#757575" d="M465.1,-352.05C473.73,-348.49 482.08,-343.86 489,-337.86 523.85,-307.62 542.7,-255.22 551.15,-225.05"/>
<polygon fill="#757575" stroke="#757575" points="554.52,-225.99 553.68,-215.43 547.75,-224.21 554.52,-225.99"/>
</g>
<!-- build&#45;posts.js -->
<g id="node5" class="node">
<title>build&#45;posts.js</title>
<path fill="none" stroke="#c6c5fe" d="M106.33,-215.73C106.33,-215.73 27.42,-215.73 27.42,-215.73 23.46,-215.73 19.5,-211.77 19.5,-207.82 19.5,-207.82 19.5,-199.9 19.5,-199.9 19.5,-195.94 23.46,-191.98 27.42,-191.98 27.42,-191.98 106.33,-191.98 106.33,-191.98 110.29,-191.98 114.25,-195.94 114.25,-199.9 114.25,-199.9 114.25,-207.82 114.25,-207.82 114.25,-211.77 110.29,-215.73 106.33,-215.73"/>
<text xml:space="preserve" text-anchor="middle" x="66.88" y="-198.43" font-family="Arial" font-size="14.00" fill="#c6c5fe">build&#45;posts.js</text>
</g>
<!-- build&#45;posts.js&#45;&gt;build&#45;categories.js -->
<g id="edge4" class="edge">
<title>build&#45;posts.js&#45;&gt;build&#45;categories.js</title>
<path fill="none" stroke="#757575" d="M114.61,-213.59C121.51,-216.44 128.17,-220.11 133.75,-224.86 160.69,-247.79 143.89,-271.71 169.75,-295.86 173.03,-298.92 176.73,-301.66 180.65,-304.09"/>
<polygon fill="#757575" stroke="#757575" points="178.91,-307.13 189.37,-308.81 182.24,-300.97 178.91,-307.13"/>
</g>
<!-- build&#45;posts.js&#45;&gt;config.js -->
<g id="edge9" class="edge">
<title>build&#45;posts.js&#45;&gt;config.js</title>
<path fill="none" stroke="#757575" d="M114.74,-192.12C131.92,-188.37 151.61,-184.71 169.75,-182.86 294,-170.18 441.58,-185.89 513.3,-195.47"/>
<polygon fill="#757575" stroke="#757575" points="512.67,-198.92 523.06,-196.81 513.62,-191.98 512.67,-198.92"/>
</g>
<!-- build&#45;posts.js&#45;&gt;utils/seo.js -->
<g id="edge12" class="edge">
<title>build&#45;posts.js&#45;&gt;utils/seo.js</title>
<path fill="none" stroke="#757575" d="M110.85,-216.2C118.58,-218.8 126.48,-221.72 133.75,-224.86 150.55,-232.12 152.46,-238.85 169.75,-244.86 232.8,-266.77 309.58,-276.5 358.8,-280.74"/>
<polygon fill="#757575" stroke="#757575" points="358.32,-284.21 368.57,-281.53 358.89,-277.23 358.32,-284.21"/>
</g>
<!-- build&#45;rss.js -->
<g id="node6" class="node">
<title>build&#45;rss.js</title>
<path fill="none" stroke="#c6c5fe" d="M264.46,-215.73C264.46,-215.73 199.79,-215.73 199.79,-215.73 195.83,-215.73 191.88,-211.77 191.88,-207.82 191.88,-207.82 191.88,-199.9 191.88,-199.9 191.88,-195.94 195.83,-191.98 199.79,-191.98 199.79,-191.98 264.46,-191.98 264.46,-191.98 268.42,-191.98 272.38,-195.94 272.38,-199.9 272.38,-199.9 272.38,-207.82 272.38,-207.82 272.38,-211.77 268.42,-215.73 264.46,-215.73"/>
<text xml:space="preserve" text-anchor="middle" x="232.12" y="-198.43" font-family="Arial" font-size="14.00" fill="#c6c5fe">build&#45;rss.js</text>
</g>
<!-- build&#45;posts.js&#45;&gt;build&#45;rss.js -->
<g id="edge5" class="edge">
<title>build&#45;posts.js&#45;&gt;build&#45;rss.js</title>
<path fill="none" stroke="#757575" d="M114.66,-203.86C135.17,-203.86 159.29,-203.86 180.25,-203.86"/>
<polygon fill="#757575" stroke="#757575" points="180.01,-207.36 190.01,-203.86 180.01,-200.36 180.01,-207.36"/>
</g>
<!-- build&#45;search&#45;index.js -->
<g id="node7" class="node">
<title>build&#45;search&#45;index.js</title>
<path fill="none" stroke="#c6c5fe" d="M471.71,-135.73C471.71,-135.73 347.79,-135.73 347.79,-135.73 343.83,-135.73 339.88,-131.77 339.88,-127.82 339.88,-127.82 339.88,-119.9 339.88,-119.9 339.88,-115.94 343.83,-111.98 347.79,-111.98 347.79,-111.98 471.71,-111.98 471.71,-111.98 475.67,-111.98 479.62,-115.94 479.62,-119.9 479.62,-119.9 479.62,-127.82 479.62,-127.82 479.62,-131.77 475.67,-135.73 471.71,-135.73"/>
<text xml:space="preserve" text-anchor="middle" x="409.75" y="-118.43" font-family="Arial" font-size="14.00" fill="#c6c5fe">build&#45;search&#45;index.js</text>
</g>
<!-- build&#45;posts.js&#45;&gt;build&#45;search&#45;index.js -->
<g id="edge6" class="edge">
<title>build&#45;posts.js&#45;&gt;build&#45;search&#45;index.js</title>
<path fill="none" stroke="#757575" d="M85.73,-191.68C105.38,-178.94 138.37,-159.49 169.75,-149.86 221.08,-134.1 281.17,-127.61 328.26,-125.06"/>
<polygon fill="#757575" stroke="#757575" points="328.3,-128.56 338.12,-124.58 327.96,-121.57 328.3,-128.56"/>
</g>
<!-- build&#45;sitemap.js -->
<g id="node8" class="node">
<title>build&#45;sitemap.js</title>
<path fill="none" stroke="#c6c5fe" d="M457.08,-93.73C457.08,-93.73 362.42,-93.73 362.42,-93.73 358.46,-93.73 354.5,-89.77 354.5,-85.82 354.5,-85.82 354.5,-77.9 354.5,-77.9 354.5,-73.94 358.46,-69.98 362.42,-69.98 362.42,-69.98 457.08,-69.98 457.08,-69.98 461.04,-69.98 465,-73.94 465,-77.9 465,-77.9 465,-85.82 465,-85.82 465,-89.77 461.04,-93.73 457.08,-93.73"/>
<text xml:space="preserve" text-anchor="middle" x="409.75" y="-76.43" font-family="Arial" font-size="14.00" fill="#c6c5fe">build&#45;sitemap.js</text>
</g>
<!-- build&#45;posts.js&#45;&gt;build&#45;sitemap.js -->
<g id="edge7" class="edge">
<title>build&#45;posts.js&#45;&gt;build&#45;sitemap.js</title>
<path fill="none" stroke="#757575" d="M79.41,-191.55C97.04,-173.57 132.58,-140.45 169.75,-123.86 225.07,-99.16 293.65,-88.96 343.14,-84.76"/>
<polygon fill="#757575" stroke="#757575" points="343.14,-88.27 352.84,-84 342.59,-81.29 343.14,-88.27"/>
</g>
<!-- callouts.js -->
<g id="node9" class="node">
<title>callouts.js</title>
<path fill="none" stroke="#cfffac" d="M261.83,-375.73C261.83,-375.73 202.42,-375.73 202.42,-375.73 198.46,-375.73 194.5,-371.77 194.5,-367.82 194.5,-367.82 194.5,-359.9 194.5,-359.9 194.5,-355.94 198.46,-351.98 202.42,-351.98 202.42,-351.98 261.83,-351.98 261.83,-351.98 265.79,-351.98 269.75,-355.94 269.75,-359.9 269.75,-359.9 269.75,-367.82 269.75,-367.82 269.75,-371.77 265.79,-375.73 261.83,-375.73"/>
<text xml:space="preserve" text-anchor="middle" x="232.12" y="-358.43" font-family="Arial" font-size="14.00" fill="#cfffac">callouts.js</text>
</g>
<!-- build&#45;posts.js&#45;&gt;callouts.js -->
<g id="edge8" class="edge">
<title>build&#45;posts.js&#45;&gt;callouts.js</title>
<path fill="none" stroke="#757575" d="M114.68,-212.49C121.75,-215.47 128.44,-219.48 133.75,-224.86 172.28,-263.87 131.63,-303.44 169.75,-342.86 173.76,-347 178.62,-350.33 183.83,-353"/>
<polygon fill="#757575" stroke="#757575" points="182.18,-356.1 192.75,-356.78 184.91,-349.65 182.18,-356.1"/>
</g>
<!-- stats.js -->
<g id="node10" class="node">
<title>stats.js</title>
<path fill="none" stroke="#cfffac" d="M253.21,-59.73C253.21,-59.73 211.04,-59.73 211.04,-59.73 207.08,-59.73 203.12,-55.77 203.12,-51.82 203.12,-51.82 203.12,-43.9 203.12,-43.9 203.12,-39.94 207.08,-35.98 211.04,-35.98 211.04,-35.98 253.21,-35.98 253.21,-35.98 257.17,-35.98 261.12,-39.94 261.12,-43.9 261.12,-43.9 261.12,-51.82 261.12,-51.82 261.12,-55.77 257.17,-59.73 253.21,-59.73"/>
<text xml:space="preserve" text-anchor="middle" x="232.12" y="-42.43" font-family="Arial" font-size="14.00" fill="#cfffac">stats.js</text>
</g>
<!-- build&#45;posts.js&#45;&gt;stats.js -->
<g id="edge10" class="edge">
<title>build&#45;posts.js&#45;&gt;stats.js</title>
<path fill="none" stroke="#757575" d="M74.47,-191.8C88.75,-166.67 124.9,-108.2 169.75,-73.86 176.45,-68.73 184.3,-64.42 192.12,-60.87"/>
<polygon fill="#757575" stroke="#757575" points="193.35,-64.15 201.24,-57.08 190.66,-57.68 193.35,-64.15"/>
</g>
<!-- utils/find&#45;cover&#45;image.js -->
<g id="node11" class="node">
<title>utils/find&#45;cover&#45;image.js</title>
<path fill="none" stroke="#c6c5fe" d="M481.08,-253.73C481.08,-253.73 338.42,-253.73 338.42,-253.73 334.46,-253.73 330.5,-249.77 330.5,-245.82 330.5,-245.82 330.5,-237.9 330.5,-237.9 330.5,-233.94 334.46,-229.98 338.42,-229.98 338.42,-229.98 481.08,-229.98 481.08,-229.98 485.04,-229.98 489,-233.94 489,-237.9 489,-237.9 489,-245.82 489,-245.82 489,-249.77 485.04,-253.73 481.08,-253.73"/>
<text xml:space="preserve" text-anchor="middle" x="409.75" y="-236.43" font-family="Arial" font-size="14.00" fill="#c6c5fe">utils/find&#45;cover&#45;image.js</text>
</g>
<!-- build&#45;posts.js&#45;&gt;utils/find&#45;cover&#45;image.js -->
<g id="edge11" class="edge">
<title>build&#45;posts.js&#45;&gt;utils/find&#45;cover&#45;image.js</title>
<path fill="none" stroke="#757575" d="M114.56,-214.83C131.82,-218.53 151.59,-222.35 169.75,-224.86 218.75,-231.62 273.78,-235.77 318.69,-238.27"/>
<polygon fill="#757575" stroke="#757575" points="318.48,-241.77 328.66,-238.81 318.86,-234.78 318.48,-241.77"/>
</g>
<!-- build&#45;rss.js&#45;&gt;config.js -->
<g id="edge13" class="edge">
<title>build&#45;rss.js&#45;&gt;config.js</title>
<path fill="none" stroke="#757575" d="M272.81,-203.61C333.82,-203.24 450.23,-202.52 513.39,-202.13"/>
<polygon fill="#757575" stroke="#757575" points="513.04,-205.63 523.02,-202.07 513,-198.63 513.04,-205.63"/>
</g>
<!-- build&#45;rss.js&#45;&gt;utils/find&#45;cover&#45;image.js -->
<g id="edge14" class="edge">
<title>build&#45;rss.js&#45;&gt;utils/find&#45;cover&#45;image.js</title>
<path fill="none" stroke="#757575" d="M272.54,-212.39C292.62,-216.73 317.6,-222.14 340.67,-227.13"/>
<polygon fill="#757575" stroke="#757575" points="339.82,-230.52 350.33,-229.22 341.3,-223.68 339.82,-230.52"/>
</g>
<!-- build&#45;search&#45;index.js&#45;&gt;config.js -->
<g id="edge15" class="edge">
<title>build&#45;search&#45;index.js&#45;&gt;config.js</title>
<path fill="none" stroke="#757575" d="M456.51,-136.22C467.45,-139.94 478.88,-144.49 489,-149.86 505.65,-158.69 522.48,-171.58 535.19,-182.31"/>
<polygon fill="#757575" stroke="#757575" points="532.67,-184.76 542.52,-188.67 537.26,-179.47 532.67,-184.76"/>
</g>
<!-- build&#45;sitemap.js&#45;&gt;config.js -->
<g id="edge16" class="edge">
<title>build&#45;sitemap.js&#45;&gt;config.js</title>
<path fill="none" stroke="#757575" d="M465.19,-91.07C473.63,-93.98 481.88,-97.82 489,-102.86 516.48,-122.33 536.27,-156.69 547.13,-179.37"/>
<polygon fill="#757575" stroke="#757575" points="543.89,-180.72 551.23,-188.36 550.26,-177.81 543.89,-180.72"/>
</g>
<!-- utils/find&#45;cover&#45;image.js&#45;&gt;config.js -->
<g id="edge19" class="edge">
<title>utils/find&#45;cover&#45;image.js&#45;&gt;config.js</title>
<path fill="none" stroke="#757575" d="M455.75,-229.53C474.2,-224.47 495.47,-218.65 513.72,-213.65"/>
<polygon fill="#757575" stroke="#757575" points="514.46,-217.07 523.18,-211.05 512.61,-210.32 514.46,-217.07"/>
</g>
<!-- build&#45;stats.js -->
<g id="node12" class="node">
<title>build&#45;stats.js</title>
<path fill="none" stroke="#c6c5fe" d="M104.46,-39.73C104.46,-39.73 29.29,-39.73 29.29,-39.73 25.33,-39.73 21.38,-35.77 21.38,-31.82 21.38,-31.82 21.38,-23.9 21.38,-23.9 21.38,-19.94 25.33,-15.98 29.29,-15.98 29.29,-15.98 104.46,-15.98 104.46,-15.98 108.42,-15.98 112.38,-19.94 112.38,-23.9 112.38,-23.9 112.38,-31.82 112.38,-31.82 112.38,-35.77 108.42,-39.73 104.46,-39.73"/>
<text xml:space="preserve" text-anchor="middle" x="66.88" y="-22.43" font-family="Arial" font-size="14.00" fill="#c6c5fe">build&#45;stats.js</text>
</g>
<!-- build&#45;stats.js&#45;&gt;config.js -->
<g id="edge17" class="edge">
<title>build&#45;stats.js&#45;&gt;config.js</title>
<path fill="none" stroke="#757575" d="M112.63,-17.08C195.98,0.2 376.73,24.13 489,-60.86 527.59,-90.07 545.29,-146.95 552.48,-178.82"/>
<polygon fill="#757575" stroke="#757575" points="548.97,-179.13 554.43,-188.21 555.82,-177.71 548.97,-179.13"/>
</g>
<!-- build&#45;stats.js&#45;&gt;stats.js -->
<g id="edge18" class="edge">
<title>build&#45;stats.js&#45;&gt;stats.js</title>
<path fill="none" stroke="#757575" d="M112.48,-33.32C137.31,-36.36 167.93,-40.12 191.85,-43.05"/>
<polygon fill="#757575" stroke="#757575" points="191.14,-46.48 201.49,-44.23 191.99,-39.54 191.14,-46.48"/>
</g>
<!-- fetch&#45;goatcounter.js -->
<g id="node13" class="node">
<title>fetch&#45;goatcounter.js</title>
<path fill="none" stroke="#cfffac" d="M125.83,-257.73C125.83,-257.73 7.92,-257.73 7.92,-257.73 3.96,-257.73 0,-253.77 0,-249.82 0,-249.82 0,-241.9 0,-241.9 0,-237.94 3.96,-233.98 7.92,-233.98 7.92,-233.98 125.83,-233.98 125.83,-233.98 129.79,-233.98 133.75,-237.94 133.75,-241.9 133.75,-241.9 133.75,-249.82 133.75,-249.82 133.75,-253.77 129.79,-257.73 125.83,-257.73"/>
<text xml:space="preserve" text-anchor="middle" x="66.88" y="-240.43" font-family="Arial" font-size="14.00" fill="#cfffac">fetch&#45;goatcounter.js</text>
</g>
</g>
</svg>
